<svg xmlns="http://www.w3.org/2000/svg" viewBox="0 0 320 200">
  <defs>
    <linearGradient id="giftGradient" x1="0%" y1="0%" x2="100%" y2="100%">
      <stop offset="0%" stop-color="#ff8ec7" />
      <stop offset="100%" stop-color="#ff3f97" />
    </linearGradient>
    <linearGradient id="textGradient" x1="0%" y1="0%" x2="100%" y2="100%">
      <stop offset="0%" stop-color="#ff9fd4" />
      <stop offset="100%" stop-color="#ff3f97" />
    </linearGradient>
  </defs>
  <g transform="translate(40,20)">
    <rect x="36" y="60" width="160" height="110" rx="16" fill="url(#giftGradient)" />
    <rect x="36" y="40" width="160" height="40" rx="14" fill="url(#giftGradient)" />
    <rect x="107" y="40" width="18" height="130" fill="#ffffff" opacity="0.6" />
    <path d="M90 40c-14-32 42-42 56-8 14-34 70-24 56 8-8 16-40 20-56 40-16-20-48-24-56-40z" fill="#ffffff" opacity="0.85" />
    <path d="M90 38c-10-24 28-34 40-6 12-28 50-18 40 6-6 12-28 16-40 30-12-14-34-18-40-30z" fill="url(#giftGradient)" />
  </g>
  <text x="160" y="180" font-family="'Baloo 2', 'Comic Sans MS', cursive" font-size="72" text-anchor="middle" fill="url(#textGradient)" font-weight="700">SAYS</text>
</svg>