<svg xmlns="http://www.w3.org/2000/svg" viewBox="0 0 400 300">
  <defs>
    <linearGradient id="partyGrad" x1="0%" y1="0%" x2="100%" y2="100%">
      <stop offset="0%" stop-color="#ffa2d7" />
      <stop offset="100%" stop-color="#ff3a92" />
    </linearGradient>
  </defs>
  <rect width="400" height="300" rx="36" fill="url(#partyGrad)" />
  <g fill="none" stroke="#fff" stroke-width="6" stroke-linecap="round" stroke-linejoin="round" transform="translate(50,70)">
    <path d="M40 150c12-30 28-60 36-94 8-34 16-74 48-74s40 30 54 60c10 22 22 44 46 44 20 0 34-20 48-40" />
    <path d="M60 110c30 0 44-28 58-62 12-28 28-58 56-58 40 0 52 56 72 96 12 22 28 40 54 40" opacity="0.6" />
  </g>
  <g fill="#fff" opacity="0.9">
    <circle cx="70" cy="90" r="8" />
    <circle cx="120" cy="48" r="10" />
    <circle cx="220" cy="68" r="6" />
    <circle cx="320" cy="110" r="9" />
    <circle cx="280" cy="50" r="7" />
    <circle cx="210" cy="200" r="11" />
    <circle cx="120" cy="210" r="7" />
  </g>
  <text x="200" y="270" text-anchor="middle" font-family="'Baloo 2', 'Comic Sans MS', cursive" font-size="32" fill="#fff">Весёлые моменты</text>
</svg>