<svg width="180" height="180" viewBox="0 0 180 180" fill="none" xmlns="http://www.w3.org/2000/svg">
  <defs>
    <linearGradient id="grad" x1="20" y1="20" x2="160" y2="160" gradientUnits="userSpaceOnUse">
      <stop stop-color="#FF7CC6" />
      <stop offset="0.5" stop-color="#FF4EA2" />
      <stop offset="1" stop-color="#FF7CC6" />
    </linearGradient>
  </defs>
  <rect x="20" y="50" width="140" height="100" rx="18" stroke="url(#grad)" stroke-width="14" fill="white" />
  <path d="M90 150V44" stroke="url(#grad)" stroke-width="14" stroke-linecap="round" />
  <path d="M52 32c-14 0-26 8-26 20 0 14 14 22 31 22 16 0 38-11 53-20 15 9 37 20 53 20 17 0 31-8 31-22 0-12-12-20-26-20-16 0-33 10-45 20-12-10-29-20-45-20z" fill="white" stroke="url(#grad)" stroke-width="12" stroke-linejoin="round" />
  <circle cx="60" cy="40" r="18" fill="url(#grad)" />
  <circle cx="120" cy="40" r="18" fill="url(#grad)" />
  <path d="M60 30c-8 0-15 6-15 14s7 14 15 14c12 0 20-7 30-14-10-7-18-14-30-14z" fill="white" />
  <path d="M120 30c-8 0-15 6-15 14s7 14 15 14c12 0 20-7 30-14-10-7-18-14-30-14z" fill="white" />
</svg>